<?xml version="1.0" encoding="UTF-8" standalone="no"?>
<svg
   width="161.42303mm"
   height="190.75598mm"
   viewBox="0 0 161.42303 190.75598"
   version="1.1"
   id="svg1197"
   inkscape:export-filename="/Users/josius/Documents/zocolo/imagenes/impresos/tpvguay/colores-tpvguay.png"
   inkscape:export-xdpi="96"
   inkscape:export-ydpi="96"
   inkscape:version="1.4 (e7c3feb1, 2024-10-09)"
   sodipodi:docname="logo-tpvguay.svg"
   xmlns:inkscape="http://www.inkscape.org/namespaces/inkscape"
   xmlns:sodipodi="http://sodipodi.sourceforge.net/DTD/sodipodi-0.dtd"
   xmlns="http://www.w3.org/2000/svg"
   xmlns:svg="http://www.w3.org/2000/svg"
   xmlns:rdf="http://www.w3.org/1999/02/22-rdf-syntax-ns#"
   xmlns:cc="http://creativecommons.org/ns#"
   xmlns:dc="http://purl.org/dc/elements/1.1/">
  <defs
     id="defs1191" />
  <sodipodi:namedview
     id="base"
     pagecolor="#ffffff"
     bordercolor="#666666"
     borderopacity="1.0"
     inkscape:pageopacity="0.0"
     inkscape:pageshadow="2"
     inkscape:zoom="0.36916737"
     inkscape:cx="669.07322"
     inkscape:cy="677.19961"
     inkscape:document-units="mm"
     inkscape:current-layer="layer1"
     inkscape:document-rotation="0"
     showgrid="false"
     inkscape:window-width="1920"
     inkscape:window-height="1027"
     inkscape:window-x="1920"
     inkscape:window-y="25"
     inkscape:window-maximized="0"
     inkscape:showpageshadow="2"
     inkscape:pagecheckerboard="0"
     inkscape:deskcolor="#d1d1d1" />
  <metadata
     id="metadata1194">
    <rdf:RDF>
      <cc:Work
         rdf:about="">
        <dc:format>image/svg+xml</dc:format>
        <dc:type
           rdf:resource="http://purl.org/dc/dcmitype/StillImage" />
      </cc:Work>
    </rdf:RDF>
  </metadata>
  <g
     inkscape:label="Capa 1"
     inkscape:groupmode="layer"
     id="layer1"
     transform="translate(-134.4131,-87.691643)">
    <rect
       style="fill:#ffffff;fill-opacity:1;stroke:none;stroke-width:6.20334;stroke-linecap:round"
       id="rect1870"
       width="161.42303"
       height="190.75598"
       x="134.4131"
       y="87.691643" />
    <g
       id="g2030"
       transform="matrix(1.0983633,0,0,1.0983633,126.18803,63.612586)"
       style="display:inline">
      <g
         id="g110381"
         style="display:inline"
         transform="matrix(2.0142312,0,0,2.0142312,1144.5906,742.655)">
        <path
           id="path109858"
           style="fill:#0ba36b;fill-opacity:1;stroke:none;stroke-width:11.5471;stroke-linecap:round;stroke-linejoin:round;stroke-opacity:1;stop-color:#000000"
           d="m -551.05221,-304.81998 c -1.1078,0 -1.9997,0.8924 -1.9997,2.0004 v 2.9998 c 0,1.108 0.8919,1.9999 1.9997,1.9999 h 46.0005 c 1.1081,0 1.9997,-0.8919 1.9997,-1.9999 v -2.9998 c 0,-1.108 -0.8916,-2.0004 -1.9997,-2.0004 z m 46,3.9998 a 1,1 0 0 1 0.9998,1.0004 1,1 0 0 1 -0.9998,1 1,1 0 0 1 -0.9999,-1 1,1 0 0 1 0.9999,-1.0004 z" />
        <path
           id="path109860"
           style="fill:#000000;fill-opacity:1;stroke:none;stroke-width:5.37726;stroke-linecap:round;stroke-linejoin:round;stroke-opacity:1;stop-color:#000000"
           d="m -513.05191,-316.81978 c -1.1078,0 -1.9997,0.8919 -1.9997,1.9999 v 8 c 0,1.108 0.8919,1.9999 1.9997,1.9999 h 8.0002 c 1.1081,0 1.9997,-0.8919 1.9997,-1.9999 v -8 c 0,-1.108 -0.8916,-1.9999 -1.9997,-1.9999 z m -0.9999,1.9999 h 10 v 1.9999 l -1.2502,-0.4 -1.2499,0.4 -1.2502,-0.4 -1.2498,0.4 c 0,0 -0.8126,-0.4 -1.2502,-0.4 -0.4374,0 -1.2502,0.4 -1.2502,0.4 l -1.2498,-0.4 -1.2497,0.4 z m 8.8998,7.0004 c 0.5525,10e-5 1.0002,0.448 0.9999,1.0004 0,0.5523 -0.4477,0.9999 -0.9999,1 -0.5522,-1e-4 -0.9998,-0.4477 -0.9998,-1 0,-0.5524 0.4474,-1.0003 0.9998,-1.0004 z"
           sodipodi:nodetypes="ssssssssscccccccsccccsssss" />
        <g
           id="g109886"
           transform="matrix(-1,0,0,1,-975.04651,76.332177)">
          <path
             id="path109862"
             style="fill:none;fill-opacity:1;stroke:#0ba36b;stroke-width:2;stroke-linecap:round;stroke-linejoin:round;stroke-miterlimit:4;stroke-dasharray:none;stroke-opacity:1;stop-color:#000000"
             d="m -443.49485,-403.15164 c 3.20963,4.45578 0.50673,5.11666 9.02545,5.11666"
             sodipodi:nodetypes="cc"
             inkscape:transform-center-x="-8.5137707"
             inkscape:transform-center-y="0.089216422" />
          <path
             style="fill:none;fill-opacity:1;stroke:#0ba36b;stroke-width:2;stroke-linecap:round;stroke-linejoin:round;stroke-miterlimit:4;stroke-dasharray:none;stroke-opacity:1;stop-color:#000000"
             d="m -450.49461,-403.36966 c -4.95095,0.89491 -8.38063,7.5419 -10.40542,9.21216"
             id="path109864"
             sodipodi:nodetypes="cc" />
          <path
             id="path109866"
             style="fill:#000000;fill-opacity:1;stroke:none;stroke-width:5.37726;stroke-linecap:round;stroke-linejoin:round;stroke-opacity:1;stop-color:#000000"
             d="m -450.49512,-405.15224 -3.49951,21.00046 h -1.50019 c -0.83101,0 -1.49963,0.66917 -1.49963,1.50017 0,0.831 0.66862,1.49965 1.49963,1.49965 h 4.06384 l 1.99419,-9.05837 h 4.88291 l 1.99472,9.05837 h 4.06435 c 0.83108,0 1.50016,-0.66865 1.50016,-1.49965 0,-0.831 -0.66908,-1.50017 -1.50016,-1.50017 h -1.49966 l -3.50108,-21.00046 z"
             sodipodi:nodetypes="ccsssccccsssccc" />
          <g
             id="g109874"
             transform="matrix(1.0000103,0,0,1,520.04534,-520.05568)"
             style="fill:#000000">
            <path
               id="path109868"
               style="fill:#ee9b00;fill-opacity:1;stroke:none;stroke-width:10.3146;stroke-linecap:round;stroke-linejoin:round;stroke-opacity:1;stop-color:#000000"
               d="m -950.53014,85.903443 c 1.108,0 1.9997,0.8919 1.9997,1.9999 v 24.999997 c 0,1.1079 -0.8917,1.9999 -1.9997,1.9999 h -32.9997 c -1.1078,0 -1.9997,-0.892 -1.9997,-1.9999 V 98.903143 h -5e-4 c -0.035,0 -0.069,-9e-4 -0.103,0 -1.0596,-0.053 -1.897,-0.9244 -1.897,-1.9978 v -5.9996 c 0,-1.108 0.8919,-1.9999 2,-1.9999 h 5e-4 v -0.9994 c 0,-1.108 0.8919,-1.9999 1.9997,-1.9999 z m -0.9999,2.9998 h -30.9997 v 22.999597 h 30.9997 z"
               sodipodi:nodetypes="cssssscscssscsccccccc" />
            <path
               id="path109870"
               style="display:inline;fill:#0ba36b;fill-opacity:1;stroke-width:30.8573;stroke-linecap:round;stroke-linejoin:round;paint-order:stroke fill markers;stop-color:#000000"
               d="m -975.06807,102.76739 c -1.10821,0 -2.01934,0.90221 -2.01934,1.99851 a 0.61279794,0.60623541 0 0 0 0.61143,0.60486 0.61279794,0.60623541 0 0 0 0.49039,-0.24418 c 1.34593,2.74429 4.84313,4.70404 8.95557,4.70413 4.11244,-9e-5 7.60963,-1.95984 8.95554,-4.70413 a 0.61279794,0.60623541 0 0 0 0.49041,0.24418 0.61279794,0.60623541 0 0 0 0.61144,-0.60486 c 0,-1.0963 -0.91115,-1.99851 -2.01934,-1.99851 a 0.61279794,0.60623541 0 0 0 -0.61221,0.60486 0.61279794,0.60623541 0 0 0 0.61221,0.60567 c 0.0357,0 0.0691,0.006 0.10339,0.0103 -1.69533,2.23479 -4.73611,3.8789 -8.1414,3.87888 -3.40528,2e-5 -6.44609,-1.64409 -8.14144,-3.87888 0.0345,-0.004 0.0677,-0.0103 0.10338,-0.0103 a 0.61279794,0.60623541 0 0 0 0.61222,-0.60567 0.61279794,0.60623541 0 0 0 -0.61222,-0.60486 z" />
            <path
               id="path109872"
               style="fill:#ee9b00;fill-opacity:1;stroke:none;stroke-width:10.3146;stroke-linecap:round;stroke-linejoin:round;stroke-opacity:1;stop-color:#000000"
               d="m -971.53002,91.76699 c -0.55225,6e-5 -0.9999,0.44775 -0.9999,1 -2.2e-4,0.5524 0.4475,1.00034 0.9999,1.0004 0.55248,6e-5 1.00032,-0.44792 1.0001,-1.0004 0,-0.55232 -0.44778,-1.00006 -1.0001,-1 z m 2.9998,0 c -0.55225,6e-5 -0.9999,0.44775 -0.9999,1 -2.2e-4,0.5524 0.4475,1.00034 0.9999,1.0004 0.5526,2.2e-4 1.00062,-0.4478 1.0004,-1.0004 0,-0.55244 -0.44796,-1.00022 -1.0004,-1 z m 3.0004,0 c -0.55225,6e-5 -0.9999,0.44775 -0.9999,1 -2.2e-4,0.5524 0.4475,1.00034 0.9999,1.0004 0.55236,-1.1e-4 1.00002,-0.44804 0.9998,-1.0004 0,-0.55221 -0.44759,-0.99989 -0.9998,-1 z m 2.9998,0 c -0.55221,1.1e-4 -0.9998,0.44779 -0.9998,1 -2.2e-4,0.55236 0.44744,1.00029 0.9998,1.0004 0.5524,-6e-5 1.00012,-0.448 0.9999,-1.0004 0,-0.55225 -0.44765,-0.99994 -0.9999,-1 z m -9,3.0004 c -0.55221,6e-5 -0.99984,0.44769 -0.9999,0.9999 0,0.55225 0.44765,0.99994 0.9999,1 0.55232,6e-5 1.0001,-0.44768 1.0001,-1 -6e-5,-0.55228 -0.44782,-0.99996 -1.0001,-0.9999 z m 2.9998,0 c -0.55221,6e-5 -0.99984,0.44769 -0.9999,0.9999 0,0.55225 0.44765,0.99994 0.9999,1 0.55244,2.2e-4 1.0004,-0.44756 1.0004,-1 -6e-5,-0.5524 -0.448,-1.00012 -1.0004,-0.9999 z m 3.0004,0 c -0.55221,6e-5 -0.99984,0.44769 -0.9999,0.9999 0,0.55225 0.44765,0.99994 0.9999,1 0.55221,-1.1e-4 0.9998,-0.44779 0.9998,-1 -6e-5,-0.55217 -0.44763,-0.99979 -0.9998,-0.9999 z m 2.9998,0 c -0.55217,1.1e-4 -0.99974,0.44773 -0.9998,0.9999 0,0.55221 0.44759,0.99989 0.9998,1 0.55225,-6e-5 0.9999,-0.44775 0.9999,-1 -6e-5,-0.55221 -0.44769,-0.99984 -0.9999,-0.9999 z m -9,2.9998 c -0.55221,6e-5 -0.99984,0.44769 -0.9999,0.9999 0,0.55225 0.44765,0.99994 0.9999,1 0.55232,6e-5 1.0001,-0.44768 1.0001,-1 -6e-5,-0.55228 -0.44782,-0.99996 -1.0001,-0.9999 z m 2.9998,0 c -0.55221,6e-5 -0.99984,0.44769 -0.9999,0.9999 0,0.55225 0.44765,0.99994 0.9999,1 0.55244,2.2e-4 1.0004,-0.44756 1.0004,-1 -6e-5,-0.5524 -0.448,-1.00012 -1.0004,-0.9999 z m 3.0004,0 c -0.55221,6e-5 -0.99984,0.44769 -0.9999,0.9999 0,0.55225 0.44765,0.99994 0.9999,1 0.55221,-1.1e-4 0.9998,-0.44779 0.9998,-1 -6e-5,-0.55217 -0.44763,-0.99979 -0.9998,-0.9999 z m 2.9998,0 c -0.55217,1.1e-4 -0.99974,0.44773 -0.9998,0.9999 0,0.55221 0.44759,0.99989 0.9998,1 0.55225,-6e-5 0.9999,-0.44775 0.9999,-1 -6e-5,-0.55221 -0.44769,-0.99984 -0.9999,-0.9999 z m -9,2.9998 c -0.55244,6e-5 -1.00018,0.44806 -0.9999,1.0005 6e-5,0.55221 0.44769,0.99984 0.9999,0.9999 0.55228,6e-5 1.00004,-0.44762 1.0001,-0.9999 2.8e-4,-0.55252 -0.44758,-1.00056 -1.0001,-1.0005 z m 2.9998,0 c -0.55244,6e-5 -1.00018,0.44806 -0.9999,1.0005 6e-5,0.55221 0.44769,0.99984 0.9999,0.9999 0.5524,2.2e-4 1.00034,-0.4475 1.0004,-0.9999 2.8e-4,-0.55264 -0.44776,-1.00072 -1.0004,-1.0005 z m 3.0004,0 c -0.55244,6e-5 -1.00018,0.44806 -0.9999,1.0005 6e-5,0.55221 0.44769,0.99984 0.9999,0.9999 0.55221,-6e-5 0.99984,-0.44769 0.9999,-0.9999 2.8e-4,-0.55244 -0.44746,-1.00044 -0.9999,-1.0005 z m 2.9998,0 c -0.5524,1.1e-4 -1.00008,0.4481 -0.9998,1.0005 6e-5,0.55217 0.44763,0.99979 0.9998,0.9999 0.55221,-6e-5 0.99984,-0.44769 0.9999,-0.9999 2.8e-4,-0.55244 -0.44746,-1.00044 -0.9999,-1.0005 z"
               sodipodi:nodetypes="scscsscscsscscsscscsssssssssssssssssssssssssssssssssssssssssscscsscscsscscsscscs" />
          </g>
          <g
             id="g109882"
             transform="translate(436.88984,-523.14739)"
             style="fill:#ee9b00;fill-opacity:1">
            <rect
               style="fill:#ee9b00;fill-opacity:1;stroke:none;stroke-width:4.20202;stroke-linecap:round;stroke-linejoin:round;stroke-miterlimit:4;stroke-dasharray:none;stroke-opacity:1;stop-color:#000000"
               id="rect109876"
               width="5.0000205"
               height="5"
               x="-871.35925"
               y="121.75971"
               ry="1"
               rx="0.93544334" />
            <rect
               style="fill:#ee9b00;fill-opacity:1;stroke:none;stroke-width:2.88249;stroke-linecap:round;stroke-linejoin:round;stroke-miterlimit:4;stroke-dasharray:none;stroke-opacity:1;stop-color:#000000"
               id="rect109878"
               width="2"
               height="5.882082"
               x="-871.35925"
               y="119.7595"
               ry="1"
               rx="1" />
            <rect
               style="fill:#ee9b00;fill-opacity:1;stroke:none;stroke-width:4.20202;stroke-linecap:round;stroke-linejoin:round;stroke-miterlimit:4;stroke-dasharray:none;stroke-opacity:1;stop-color:#000000"
               id="rect109880"
               width="5.0000205"
               height="5"
               x="-871.35925"
               y="121.75971"
               ry="1"
               rx="0.93544334" />
          </g>
          <path
             style="fill:none;fill-opacity:1;stroke:#ee9b00;stroke-width:1.81025;stroke-linecap:round;stroke-linejoin:round;stroke-miterlimit:4;stroke-dasharray:none;stroke-opacity:1;stop-color:#000000"
             d="m -460.90003,-394.05709 h -3.18977"
             id="path109884"
             sodipodi:nodetypes="cc" />
        </g>
      </g>
      <g
         id="g110265"
         transform="matrix(0.18854246,0,0,0.18854246,-208.74915,192.86554)"
         style="display:inline">
        <path
           id="path110259"
           style="fill:#ee9b00;fill-opacity:1;stroke:none;stroke-width:45.3842;stroke-linecap:round;stroke-linejoin:round;stroke-opacity:1;stop-color:#000000"
           d="m 1311.0634,-205.52016 c -5.2506,0 -11.356,0.24163 -18.3158,0.72482 -6.96,0.48319 -13.5532,1.32872 -19.7804,2.53667 v 123.755651 h 28.5718 v -42.037261 h 8.975 c 19.048,0 33.7003,-3.32178 43.9569,-9.96555 10.2569,-6.76458 15.3851,-17.69655 15.3851,-32.79602 0,-14.97868 -5.0673,-25.72928 -15.2017,-32.25223 -10.1347,-6.64377 -24.6651,-9.96608 -43.5909,-9.96608 z m -164.1725,1.44967 v 24.09903 h 38.2793 v 101.468441 h 28.5722 V -179.97146 h 38.279 v -24.09903 z m 234.0656,0 c 2.6863,7.97251 5.8609,17.03208 9.5241,27.17892 3.7852,10.14686 7.8762,20.77688 12.2718,31.8901 4.3957,11.11321 9.0353,22.34763 13.9196,33.70242 4.884,11.354821 9.8294,22.286791 14.8356,32.796031 h 27.4731 c 5.0062,-10.50924 9.9516,-21.44121 14.8359,-32.796031 4.884,-11.35479 9.5236,-22.58921 13.9193,-33.70242 4.3957,-11.11322 8.4255,-21.74324 12.0887,-31.8901 3.663,-10.14684 6.8984,-19.20641 9.7067,-27.17892 h -30.4032 c -2.4422,7.24774 -5.1287,15.09957 -8.0592,23.55527 -2.8085,8.33491 -5.7385,16.67005 -8.7911,25.00496 -2.9305,8.33491 -5.8612,16.30729 -8.7917,23.91743 -2.8082,7.61014 -5.3723,14.19344 -7.6923,19.75004 -2.4421,-5.5566 -5.0676,-12.1399 -7.8758,-19.75004 -2.8085,-7.61014 -5.7392,-15.58252 -8.7917,-23.91743 l -8.7911,-25.00496 c -2.8085,-8.4557 -5.4339,-16.30753 -7.8761,-23.55527 z m -68.0617,22.64937 c 4.1515,0 7.9367,0.30192 11.3554,0.9059 3.4188,0.48318 6.2884,1.44979 8.6086,2.89933 2.4419,1.32877 4.2735,3.14035 5.4946,5.43547 1.343,2.29514 2.0144,5.19442 2.0144,8.69749 0,7.24774 -2.5027,12.20029 -7.509,14.85781 -5.0062,2.65751 -12.4546,3.98633 -22.3448,3.98633 h -8.975 v -36.23859 c 1.4653,-0.12079 3.1749,-0.24187 5.1285,-0.36266 2.0757,-0.12082 4.1515,-0.18108 6.2273,-0.18108 z"
           sodipodi:nodetypes="ssccccscscscccccccccccssccsssccccccsccccscccssscccs" />
        <path
           id="path110261"
           style="fill:#0ba36b;fill-opacity:1;stroke:none;stroke-width:50.8071;stroke-linecap:round;stroke-linejoin:round;stroke-opacity:1;stop-color:#000000"
           d="m 1646.5469,-51.629659 c -10.3723,0 -18.8998,8.44427 -18.8998,18.70521 0.01,3.123578 2.5653,5.653823 5.7227,5.6608 1.8085,-0.0032 3.5096,-0.850123 4.5898,-2.28511 12.5971,25.6854003 45.3294,44.02771 83.8203,44.0286 38.4908,0 71.2227,-18.3431997 83.8197,-44.0286 1.0803,1.435155 2.7816,2.28208 4.5904,2.28511 3.1574,-0.007 5.7152,-2.537261 5.7226,-5.6608 0,-10.26094 -8.5277,-18.70521 -18.8997,-18.70521 -3.1606,0.0028 -5.7232,2.534598 -5.7303,5.6613 0,3.129522 2.5669,5.665669 5.7303,5.66852 0.334,0 0.6464,0.0569 0.9677,0.0957 -15.8679,20.91662 -44.3281,36.3046303 -76.2002,36.3044203 -31.8721,2.1e-4 -60.3329,-15.3878003 -76.2007,-36.3044203 0.3226,-0.0388 0.6337,-0.0957 0.9677,-0.0957 3.1634,-0.0029 5.7272,-2.538998 5.7303,-5.66852 -0.01,-3.126702 -2.5697,-5.658458 -5.7303,-5.6613 z"
           sodipodi:nodetypes="scccccccccscccccss" />
        <path
           id="path110263"
           style="fill:#000000;fill-opacity:1;stroke:none;stroke-width:23.6599;stroke-linecap:round;stroke-linejoin:round;stroke-opacity:1;stop-color:#000000"
           d="m 1773.9701,-176.34781 c -3.1749,0 -6.3495,0.18137 -9.5244,0.54374 -3.0524,0.24161 -5.9832,0.60382 -8.7917,1.08701 -2.8082,0.36239 -5.4331,0.84568 -7.8753,1.44966 -2.3199,0.48319 -4.2735,0.96648 -5.8609,1.44967 l 3.4796,21.74294 c 3.2969,-1.20795 7.204,-2.11377 11.7219,-2.71775 4.5179,-0.72476 9.0969,-1.08698 13.7367,-1.08698 6.9601,0 11.8444,1.38909 14.6526,4.16739 2.8085,2.7783 4.2127,6.46232 4.2127,11.05255 v 2.53667 c -1.7094,-0.48318 -3.9688,-0.84539 -6.777,-1.087 -2.6863,-0.36237 -5.7996,-0.54374 -9.3406,-0.54374 -5.2504,0 -10.3177,0.54358 -15.202,1.63074 -4.884,0.96638 -9.2191,2.59712 -13.0043,4.89224 -3.7851,2.29512 -6.8373,5.37526 -9.1575,9.24073 -2.1977,3.86546 -3.2968,8.57685 -3.2968,14.13346 0,5.79821 0.9769,10.690471 2.9307,14.676731 1.9536,3.98625 4.7618,7.24777 8.4248,9.78447 3.6632,2.41593 7.998,4.16725 13.0042,5.25442 5.1285,1.08716 10.8061,1.63074 17.0334,1.63074 9.8905,0 18.3153,-0.60387 25.275,-1.81182 6.9598,-1.08717 12.3935,-2.05378 16.3009,-2.89936 v -56.169691 c 0,-5.91898 -0.6714,-11.29455 -2.0147,-16.12637 -1.343,-4.83184 -3.6629,-8.93886 -6.9597,-12.32113 -3.1747,-3.38228 -7.4484,-5.97964 -12.821,-7.7916 -5.3726,-1.81192 -12.088,-2.71772 -20.1466,-2.71772 z m -212.4138,0.36216 c -7.6925,0 -14.5914,1.14795 -20.6965,3.44307 -6.1054,2.17433 -11.2947,5.31476 -15.5684,9.42181 -4.1515,4.10707 -7.3262,9.05959 -9.5241,14.85781 -2.198,5.67739 -3.2966,12.01955 -3.2966,19.02572 0,14.0123 3.541,24.94428 10.623,32.796001 7.082,7.73093 17.2772,11.59629 30.5865,11.59629 3.6632,0 7.0212,-0.30192 10.0736,-0.9059 3.1749,-0.72479 6.2275,-1.75166 9.158,-3.08041 v 3.44257 c 0,5.315 -1.6485,9.66368 -4.9451,13.04596 -3.1749,3.38228 -8.6695,5.07331 -16.4839,5.07331 -5.9832,0 -11.3558,-0.48276 -16.1178,-1.44913 -4.6399,-0.96638 -9.097,-2.2952 -13.3704,-3.98634 l -4.7618,22.64887 c 5.0062,1.69114 10.4399,3.01996 16.3008,3.98631 5.8609,1.08716 11.7219,1.63075 17.5828,1.63075 16.7281,0 29.0607,-3.80508 36.9974,-11.41522 8.0587,-7.48935 12.088,-19.02517 12.088,-34.60782 v -80.087651 c -2.4419,-0.72479 -5.2507,-1.38893 -8.4253,-1.99293 -3.0527,-0.72477 -6.2879,-1.32914 -9.7069,-1.81232 -3.4188,-0.48319 -6.8987,-0.8454 -10.4397,-1.08701 -3.4191,-0.36237 -6.777,-0.54374 -10.0736,-0.54374 z m 66.0874,2.17449 v 53.0898 c 0,6.52298 0.6714,12.5024 2.0144,17.93822 1.3433,5.435791 3.6018,10.146681 6.7767,14.132961 3.1747,3.86547 7.4487,6.88533 12.821,9.05963 5.4948,2.17432 12.3321,3.26151 20.513,3.26151 8.0589,0 15.7517,-0.60387 23.0778,-1.81182 7.3265,-1.08717 13.3093,-2.29491 17.9492,-3.62368 v -92.046621 h -27.29 v 73.56466 c -1.7096,0.24161 -3.6632,0.483241 -5.8609,0.724851 -2.198,0.12079 -4.2738,0.18108 -6.2273,0.18108 -6.3493,0 -10.6844,-1.932691 -13.0043,-5.798161 -2.3199,-3.86547 -3.4796,-10.14684 -3.4796,-18.84412 v -49.82831 z m 202.214,0 c 5.4946,18.72335 11.3555,35.63475 17.5828,50.73421 6.2273,14.97868 12.4549,28.508011 18.6822,40.587591 -1.8316,4.59023 -4.091,8.15367 -6.7773,10.6904 -2.5641,2.65751 -6.2881,3.9863 -11.1724,3.9863 -2.4421,0 -4.7618,-0.18134 -6.9598,-0.54374 -2.1977,-0.36239 -4.7012,-1.02653 -7.5095,-1.9929 l -4.7618,21.56187 c 2.3202,0.96634 5.2502,1.81187 8.7912,2.53664 3.6632,0.84558 7.6314,1.26859 11.9051,1.26859 5.1282,0 9.5853,-0.60438 13.3704,-1.81233 3.9074,-1.08716 7.3873,-2.89878 10.44,-5.43547 3.0526,-2.41593 5.8606,-5.55687 8.4247,-9.42234 2.5644,-3.74467 5.1287,-8.33498 7.6928,-13.7708 7.082,-15.09947 13.6148,-30.682041 19.598,-46.747881 5.9828,-16.06584 11.7216,-33.27919 17.2164,-51.64014 h -28.2058 c -1.2211,4.71104 -2.6255,9.84496 -4.2126,15.40154 -1.4653,5.43582 -3.0527,10.99224 -4.7621,16.66964 -1.5874,5.5566 -3.2357,10.99244 -4.9454,16.30747 -1.7094,5.315 -3.3577,10.14697 -4.9451,14.49562 -1.7094,-4.34865 -3.541,-9.18062 -5.4946,-14.49562 -1.8316,-5.31503 -3.6632,-10.75087 -5.4948,-16.30747 -1.8313,-5.6774 -3.6021,-11.23382 -5.3115,-16.66964 -1.5872,-5.55658 -2.9915,-10.6905 -4.2126,-15.40154 z m -268.1183,19.56896 c 2.4421,0 4.5787,0.12108 6.4103,0.36268 1.8316,0.12079 3.4188,0.30164 4.7621,0.54324 v 43.12424 c -1.7094,0.96637 -3.7851,1.81187 -6.2273,2.53664 -2.4419,0.72479 -5.0673,1.08701 -7.8758,1.08701 -12.3324,0 -18.4984,-7.54938 -18.4984,-22.64885 0,-7.24775 1.7705,-13.2272 5.3115,-17.93822 3.541,-4.71105 8.9134,-7.06674 16.1176,-7.06674 z m 216.9928,34.60782 c 1.8313,0 3.846,0.12111 6.0439,0.36269 2.1977,0.24158 3.8463,0.48324 4.9452,0.72484 v 20.474861 c -1.4653,0.24158 -3.4194,0.42245 -5.8615,0.54324 -2.4419,0.12079 -5.006,0.18158 -7.6923,0.18158 -5.0062,0 -8.9744,-0.78521 -11.9049,-2.35556 -2.8082,-1.691141 -4.2126,-4.650711 -4.2126,-8.878571 0,-2.17433 0.4883,-3.98644 1.465,-5.436 0.9769,-1.44953 2.3202,-2.59699 4.0295,-3.44257 1.7094,-0.84555 3.6633,-1.38916 5.861,-1.63074 2.3199,-0.3624 4.7623,-0.54377 7.3267,-0.54377 z"
           sodipodi:nodetypes="sccccccsssccscscssccsccsscssscccscsccscsccccscsccscscssccsccccccsssccccccsscccscccccccccsccccccscccsssssssccsscssscs" />
      </g>
    </g>
  </g>
</svg>
